<?xml version="1.0" standalone="no"?>
<!DOCTYPE svg PUBLIC "-//W3C//DTD SVG 20010904//EN"
 "http://www.w3.org/TR/2001/REC-SVG-20010904/DTD/svg10.dtd">
<svg version="1.0" xmlns="http://www.w3.org/2000/svg"
 width="420.000000pt" height="420.000000pt" viewBox="0 0 420.000000 420.000000"
 preserveAspectRatio="xMidYMid meet">
<metadata>
Created by potrace 1.14, written by Peter Selinger 2001-2017
</metadata>
<g transform="translate(0.000000,420.000000) scale(0.100000,-0.100000)"
fill="#000000" stroke="none">
<path d="M1985 3837 c-16 -5 -38 -16 -47 -25 -12 -10 -37 -14 -81 -13 -39 1
-85 -6 -118 -17 -31 -11 -73 -17 -99 -15 -62 4 -142 -14 -184 -42 -19 -13 -49
-25 -68 -28 -57 -7 -109 -38 -141 -83 -16 -23 -29 -44 -28 -46 3 -5 -109 -118
-118 -118 -10 0 -74 -70 -64 -70 5 0 2 -4 -6 -9 -7 -5 -15 -24 -17 -42 -3 -21
-16 -45 -37 -65 -17 -18 -32 -36 -33 -41 0 -4 -6 -20 -12 -34 -13 -32 -6 -84
16 -122 13 -21 14 -32 6 -45 -40 -63 -23 -152 41 -210 l41 -39 0 -204 c0 -112
4 -256 8 -319 6 -100 4 -120 -11 -150 -26 -50 -23 -167 6 -241 38 -98 110
-189 160 -201 8 -2 35 -28 60 -58 51 -63 100 -111 190 -190 35 -30 69 -60 75
-65 6 -6 34 -28 61 -50 28 -22 52 -42 55 -45 3 -3 23 -18 45 -35 22 -16 48
-37 58 -46 9 -9 30 -22 45 -30 15 -8 29 -17 32 -20 8 -10 170 -89 170 -82 0 3
10 -1 23 -9 12 -8 45 -23 72 -33 28 -10 55 -22 61 -27 6 -4 19 -9 30 -11 10
-1 25 -6 32 -10 6 -5 12 -6 12 -2 0 3 8 1 18 -4 49 -26 238 -35 326 -15 83 20
171 65 231 119 28 26 79 62 115 82 36 19 84 48 107 64 28 20 54 29 80 29 42 0
58 7 65 30 4 13 46 15 294 15 256 1 293 3 322 19 45 23 112 85 112 102 0 8 5
14 10 14 6 0 9 3 8 8 0 4 2 14 5 22 53 132 5 281 -107 334 -111 53 -277 -8
-306 -112 -40 -146 43 -246 196 -236 30 2 67 10 82 18 47 25 90 88 84 124 -2
6 2 12 8 12 7 0 9 -14 6 -37 -9 -70 -15 -86 -40 -112 -22 -23 -32 -26 -88 -25
-35 1 -177 3 -316 5 l-253 3 6 25 c16 60 18 80 18 151 -1 76 -33 193 -73 264
-15 27 -22 48 -37 106 -13 49 -18 128 -9 123 6 -3 6 0 -1 7 -8 9 -9 19 -3 31
7 11 7 20 0 24 -5 3 -10 11 -10 16 0 6 4 8 8 5 5 -3 9 1 9 9 0 8 -3 12 -7 10
-3 -2 -6 23 -7 56 0 38 3 59 11 59 8 0 8 2 -1 8 -13 8 -20 82 -10 99 4 6 4 14
-1 17 -4 2 -9 28 -10 58 -1 29 -8 91 -17 138 -32 176 -32 172 11 200 43 29 72
64 80 100 15 69 14 89 -10 156 -20 55 -24 81 -19 121 4 41 1 61 -17 98 -12 26
-33 51 -46 57 -13 6 -24 14 -25 17 -6 48 -48 129 -72 139 -4 2 -14 10 -22 19
-8 8 -15 11 -15 7 0 -3 -7 -1 -15 6 -8 6 -18 9 -23 6 -6 -3 -13 9 -16 28 -7
38 -49 75 -105 94 -19 7 -50 24 -70 39 -19 15 -43 29 -53 30 -34 5 -42 8 -60
23 -10 8 -22 15 -26 16 -4 0 -25 5 -47 11 -22 7 -87 11 -145 11 -89 -1 -117 3
-185 26 -91 31 -137 37 -180 23z m1698 -2144 c-7 -2 -13 -13 -13 -23 0 -13 5
-17 20 -13 35 9 67 -6 83 -38 18 -38 7 -81 -26 -104 -27 -19 -104 -19 -123 -1
-7 8 -18 16 -24 18 -6 2 -12 21 -14 44 -3 32 1 47 21 73 24 30 55 50 78 50 6
-1 4 -3 -2 -6z"/>
<path d="M3161 3560 c-17 -28 -31 -54 -31 -58 0 -4 -9 -18 -19 -31 -16 -20
-17 -27 -6 -38 8 -7 18 -13 23 -13 10 0 92 -38 135 -61 11 -6 21 -8 23 -6 6 6
74 170 74 179 0 7 -145 78 -160 78 -5 0 -22 -23 -39 -50z"/>
<path d="M3396 2853 c-4 -16 -17 -126 -20 -177 -1 -14 6 -20 24 -22 14 -1 56
-3 94 -5 80 -5 73 -15 78 121 3 84 3 85 -22 87 -14 1 -53 4 -87 8 -53 5 -62 3
-67 -12z"/>
<path d="M3130 2379 c0 -5 5 -7 10 -4 6 3 10 8 10 11 0 2 -4 4 -10 4 -5 0 -10
-5 -10 -11z"/>
<path d="M3170 2379 c0 -5 5 -7 10 -4 6 3 10 8 10 11 0 2 -4 4 -10 4 -5 0 -10
-5 -10 -11z"/>
<path d="M3196 2342 c-3 -4 4 -9 15 -9 23 -2 25 3 4 10 -8 4 -16 3 -19 -1z"/>
<path d="M3210 2299 c0 -5 5 -7 10 -4 6 3 10 8 10 11 0 2 -4 4 -10 4 -5 0 -10
-5 -10 -11z"/>
<path d="M3286 2198 c3 -5 10 -6 15 -3 13 9 11 12 -6 12 -8 0 -12 -4 -9 -9z"/>
<path d="M3107 2159 c7 -7 15 -10 18 -7 3 3 -2 9 -12 12 -14 6 -15 5 -6 -5z"/>
<path d="M3295 2100 c3 -5 8 -10 11 -10 2 0 4 5 4 10 0 6 -5 10 -11 10 -5 0
-7 -4 -4 -10z"/>
<path d="M3210 1980 c0 -5 5 -10 11 -10 5 0 7 5 4 10 -3 6 -8 10 -11 10 -2 0
-4 -4 -4 -10z"/>
<path d="M3210 1900 c0 -5 5 -10 11 -10 5 0 7 5 4 10 -3 6 -8 10 -11 10 -2 0
-4 -4 -4 -10z"/>
<path d="M3210 1859 c0 -5 5 -7 10 -4 6 3 10 8 10 11 0 2 -4 4 -10 4 -5 0 -10
-5 -10 -11z"/>
<path d="M692 1543 l-81 -55 57 -74 c31 -41 62 -74 67 -74 6 0 33 20 60 45 28
25 53 45 57 45 4 0 12 9 18 21 12 22 5 37 -44 93 -14 16 -26 32 -26 36 0 24
-35 11 -108 -37z"/>
<path d="M3409 1085 c-5 -4 -26 -8 -118 -20 -37 -5 -41 -16 -30 -90 14 -98 11
-94 61 -85 24 5 60 10 81 13 21 3 41 8 44 11 7 7 -15 144 -26 164 -4 7 -9 10
-12 7z"/>
<path d="M752 876 l-74 -72 66 -60 c37 -32 70 -60 75 -62 5 -1 39 26 76 62 57
54 65 67 56 82 -10 19 -96 105 -116 116 -6 4 -43 -26 -83 -66z"/>
<path d="M2603 878 c0 -7 -4 -40 -8 -73 -15 -125 -18 -115 29 -116 22 0 70 -1
106 -2 l65 -2 1 90 c0 50 -1 96 -4 103 -3 8 -32 12 -96 12 -67 0 -93 -3 -93
-12z"/>
<path d="M1386 738 c-30 -35 -56 -67 -55 -73 0 -5 21 -26 47 -45 26 -19 58
-45 72 -57 14 -13 30 -23 35 -23 6 0 29 24 50 53 22 28 46 58 52 65 7 7 13 17
13 22 0 8 -142 120 -152 120 -3 0 -31 -28 -62 -62z"/>
</g>
</svg>
